<svg width="22" height="23" viewBox="0 0 22 23" fill="none" xmlns="http://www.w3.org/2000/svg">
<g clip-path="url(#clip0_2026_1164)">
<path opacity="0.3" d="M16.0362 11.6095C16.0362 8.67123 13.6506 6.26715 10.735 6.26715C7.81929 6.26715 5.43375 8.67123 5.43375 11.6095C5.43375 13.9246 6.93575 15.8835 8.96788 16.6848V19.6231C8.96788 20.1574 9.3213 20.5135 9.85142 20.5135H11.6185C12.1486 20.5135 12.502 20.1574 12.502 19.6231V16.6848C14.5341 15.8835 16.0362 13.9246 16.0362 11.6095Z" fill="black"/>
<path d="M18.6868 10.7191H21.3374V12.4999H18.6868V10.7191ZM0.132538 10.7191H2.78314V12.4999H0.132538V10.7191ZM9.85141 0.924744H11.6185V3.59594H9.85141V0.924744Z" fill="black"/>
<path d="M15.7022 17.9044L16.9517 16.6452L18.826 18.534L17.5765 19.7932L15.7022 17.9044Z" fill="black"/>
<path d="M2.64404 4.68353L3.89353 3.4243L5.76782 5.31308L4.51833 6.57232L2.64404 4.68353Z" fill="black"/>
<path d="M15.7331 5.34424L17.6071 3.45512L18.8568 4.71414L16.9828 6.60325L15.7331 5.34424Z" fill="black"/>
<path d="M2.61377 18.5027L4.48829 16.6141L5.73762 17.8735L3.8631 19.7621L2.61377 18.5027Z" fill="black"/>
<path d="M11.6185 21.4039H9.85141C8.87953 21.4039 8.08435 20.6025 8.08435 19.6231V17.219C5.96386 16.2396 4.55021 14.0136 4.55021 11.6095C4.55021 8.13694 7.28917 5.37671 10.7349 5.37671C14.1807 5.37671 16.9197 8.13694 16.9197 11.6095C16.9197 14.0136 15.506 16.2396 13.3856 17.219V19.6231C13.3856 20.6025 12.5904 21.4039 11.6185 21.4039ZM10.7349 7.15751C8.26105 7.15751 6.31728 9.11638 6.31728 11.6095C6.31728 13.4793 7.46587 15.1711 9.23294 15.7944L9.85141 15.9725V19.6231H11.6185V15.9725L12.237 15.7944C14.004 15.1711 15.1526 13.4793 15.1526 11.6095C15.1526 9.11638 13.2088 7.15751 10.7349 7.15751ZM0.132538 10.7191H2.78314V12.4999H0.132538V10.7191Z" fill="black"/>
</g>
<defs>
<clipPath id="clip0_2026_1164">
<rect width="21.2048" height="21.3696" fill="white" transform="translate(0.132538 0.924744)"/>
</clipPath>
</defs>
</svg>
