<svg width="15" height="14" viewBox="0 0 15 14" fill="none" xmlns="http://www.w3.org/2000/svg">
<path fill-rule="evenodd" clip-rule="evenodd" d="M7.5006 0.762817C5.69003 0.762817 5.46281 0.770638 4.75169 0.802608C4.04196 0.834716 3.55751 0.945719 3.13361 1.10859C2.69514 1.27681 2.32319 1.50183 1.95263 1.86805C1.58179 2.23412 1.35401 2.60157 1.18318 3.03461C1.0179 3.45351 0.905397 3.93224 0.873452 4.63311C0.841646 5.33562 0.833313 5.56024 0.833313 7.34891C0.833313 9.13758 0.841369 9.36137 0.873591 10.0639C0.90623 10.765 1.01859 11.2436 1.18332 11.6624C1.35374 12.0956 1.58152 12.463 1.95221 12.8291C2.32263 13.1954 2.69458 13.421 3.13278 13.5892C3.55695 13.7521 4.04154 13.8631 4.75113 13.8952C5.46225 13.9272 5.68934 13.935 7.49977 13.935C9.31049 13.935 9.53702 13.9272 10.2481 13.8952C10.9579 13.8631 11.4429 13.7521 11.867 13.5892C12.3054 13.421 12.6768 13.1954 13.0472 12.8291C13.418 12.463 13.6458 12.0956 13.8166 11.6625C13.9805 11.2436 14.093 10.7649 14.1264 10.064C14.1583 9.36151 14.1666 9.13758 14.1666 7.34891C14.1666 5.56024 14.1583 5.33576 14.1264 4.63324C14.093 3.9321 13.9805 3.45351 13.8166 3.03474C13.6458 2.60157 13.418 2.23412 13.0472 1.86805C12.6764 1.50169 12.3055 1.27667 11.8666 1.10859C11.4416 0.945719 10.9569 0.834716 10.2472 0.802608C9.53604 0.770638 9.30965 0.762817 7.49852 0.762817H7.5006ZM6.90251 1.94967C7.08002 1.94939 7.27807 1.94967 7.50058 1.94967C9.28059 1.94967 9.49157 1.95598 10.1945 1.98754C10.8445 2.0169 11.1973 2.1242 11.4323 2.21435C11.7434 2.33372 11.9652 2.47642 12.1984 2.70693C12.4317 2.93744 12.5762 3.15698 12.6973 3.46433C12.7885 3.69622 12.8973 4.04473 12.9269 4.68687C12.9588 5.38116 12.9658 5.58972 12.9658 7.34738C12.9658 9.10504 12.9588 9.3136 12.9269 10.0079C12.8972 10.65 12.7885 10.9985 12.6973 11.2304C12.5765 11.5378 12.4317 11.7566 12.1984 11.987C11.9651 12.2175 11.7435 12.3602 11.4323 12.4796C11.1976 12.5702 10.8445 12.6772 10.1945 12.7065C9.49171 12.7381 9.28059 12.745 7.50058 12.745C5.72042 12.745 5.50944 12.7381 4.80666 12.7065C4.15665 12.6769 3.80387 12.5696 3.56873 12.4795C3.25762 12.3601 3.03539 12.2174 2.80205 11.9869C2.56872 11.7564 2.42427 11.5374 2.30316 11.2299C2.21191 10.998 2.10316 10.6495 2.07358 10.0073C2.04163 9.31305 2.03524 9.10449 2.03524 7.34573C2.03524 5.58697 2.04163 5.37951 2.07358 4.68523C2.1033 4.04308 2.21191 3.69457 2.30316 3.46241C2.424 3.15506 2.56872 2.93552 2.80205 2.70501C3.03539 2.4745 3.25762 2.3318 3.56873 2.21215C3.80373 2.12159 4.15665 2.01457 4.80666 1.98507C5.42167 1.95763 5.66 1.94939 6.90251 1.94802V1.94967ZM11.0592 3.04324C10.6176 3.04324 10.2592 3.39683 10.2592 3.83329C10.2592 4.26962 10.6176 4.62362 11.0592 4.62362C11.5009 4.62362 11.8592 4.26962 11.8592 3.83329C11.8592 3.39696 11.5009 3.04324 11.0592 3.04324ZM7.50062 3.96666C5.6099 3.96666 4.07697 5.48105 4.07697 7.34889C4.07697 9.21673 5.6099 10.7304 7.50062 10.7304C9.39133 10.7304 10.9237 9.21673 10.9237 7.34889C10.9237 5.48105 9.39133 3.96666 7.50062 3.96666ZM7.50059 5.15353C8.72783 5.15353 9.72284 6.13636 9.72284 7.34889C9.72284 8.56128 8.72783 9.54425 7.50059 9.54425C6.27322 9.54425 5.27834 8.56128 5.27834 7.34889C5.27834 6.13636 6.27322 5.15353 7.50059 5.15353Z" fill="white"/>
</svg>
