<svg width="13" height="11" viewBox="0 0 13 11" fill="none" xmlns="http://www.w3.org/2000/svg">
<path fill-rule="evenodd" clip-rule="evenodd" d="M6.12563 3.03728L6.15186 3.46458L5.71468 3.41225C4.12337 3.21169 2.73315 2.5315 1.55278 1.38914L0.97571 0.822316L0.82707 1.24089C0.512305 2.17397 0.713405 3.15936 1.36917 3.82211C1.71891 4.18836 1.64022 4.24068 1.03691 4.02268C0.82707 3.95291 0.643457 3.90059 0.62597 3.92675C0.564766 3.98779 0.774609 4.78134 0.940736 5.09528C1.16807 5.53129 1.63147 5.95859 2.13859 6.21148L2.56703 6.41205L2.0599 6.42077C1.57027 6.42077 1.55278 6.42949 1.60524 6.61261C1.78011 7.17943 2.47085 7.78114 3.24027 8.04275L3.78237 8.22587L3.31022 8.50492C2.61074 8.90606 1.78885 9.13279 0.966966 9.15023C0.573509 9.15895 0.25 9.19383 0.25 9.21999C0.25 9.30719 1.31671 9.79553 1.93749 9.98738C3.79986 10.5542 6.01196 10.31 7.67322 9.34208C8.8536 8.65317 10.034 7.28408 10.5848 5.95859C10.8821 5.25224 11.1794 3.96163 11.1794 3.34249C11.1794 2.94136 11.2056 2.88903 11.6952 2.40942C11.9838 2.13037 12.2548 1.82515 12.3073 1.73795C12.3947 1.57226 12.386 1.57226 11.94 1.72051C11.1969 1.98212 11.0919 1.94724 11.4592 1.55482C11.7302 1.27577 12.0537 0.769994 12.0537 0.621749C12.0537 0.595588 11.9226 0.639189 11.7739 0.717672C11.6165 0.804875 11.2668 0.93568 11.0045 1.01416L10.5323 1.16241L10.1039 0.874638C9.86784 0.717672 9.53559 0.543266 9.36072 0.490944C8.9148 0.368859 8.23281 0.3863 7.83061 0.525825C6.73767 0.91824 6.04693 1.9298 6.12563 3.03728Z" fill="white"/>
</svg>
